<?xml version="1.0" standalone="no"?>
<!DOCTYPE svg PUBLIC "-//W3C//DTD SVG 20010904//EN"
 "http://www.w3.org/TR/2001/REC-SVG-20010904/DTD/svg10.dtd">
<svg version="1.0" xmlns="http://www.w3.org/2000/svg"
 width="700.000000pt" height="700.000000pt" viewBox="0 0 700.000000 700.000000"
 preserveAspectRatio="xMidYMid meet">
<metadata>
Created by potrace 1.14, written by Peter Selinger 2001-2017
</metadata>
<g transform="translate(0.000000,700.000000) scale(0.100000,-0.100000)"
fill="#000000" stroke="none">
<path d="M1855 6175 c-181 -40 -239 -112 -260 -325 -4 -36 -9 -76 -11 -90 -3
-14 -8 -151 -11 -305 -3 -154 -6 -281 -8 -283 -1 -1 -17 6 -36 15 -71 36 -198
14 -260 -45 -59 -56 -76 -136 -73 -361 1 -196 9 -286 30 -380 32 -141 80 -173
269 -177 66 -2 123 -3 127 -3 5 -1 2 -265 -5 -418 -1 -13 -6 -23 -11 -24 -6
-1 -31 -3 -56 -5 -43 -4 -238 -31 -283 -39 -11 -3 -39 -7 -62 -10 -22 -3 -71
-10 -110 -15 -121 -17 -129 -18 -175 -19 -27 -1 -40 -5 -32 -9 9 -6 -3 -32
-48 -98 -55 -81 -59 -90 -43 -101 33 -24 102 -21 373 17 80 11 163 23 185 26
22 3 63 10 90 15 143 27 652 30 855 4 14 -1 50 -6 80 -9 86 -11 267 -46 350
-67 148 -40 467 -151 560 -196 52 -25 100 -45 105 -43 14 4 87 21 106 25 68
14 96 28 92 46 -13 49 -84 108 -196 163 -96 47 -367 145 -547 200 -73 21 -371
85 -405 86 -1 0 -1 62 -1 138 0 75 -3 182 -8 237 -19 251 -24 347 -18 363 2 6
21 12 41 12 55 0 187 37 259 72 35 17 83 51 107 75 65 67 80 132 80 353 0 152
-10 348 -20 402 -2 9 -6 44 -10 77 -13 126 -68 194 -182 220 -65 16 -133 8
-195 -23 l-48 -23 0 69 c0 146 -54 294 -134 364 -104 93 -287 128 -461 89z"/>
<path d="M3915 5993 c-58 -16 -100 -61 -116 -127 -16 -66 -7 -131 36 -264 l36
-113 -1 -252 c-1 -339 -6 -527 -14 -557 -14 -58 -14 -84 -2 -114 24 -57 75
-78 196 -82 41 -1 78 -2 81 -3 7 -1 3 -364 -5 -456 -5 -58 -12 -280 -21 -630
-3 -150 -7 -230 -21 -520 -2 -38 -6 -121 -8 -182 -3 -62 -7 -117 -10 -121 -3
-5 -38 -5 -78 0 -90 10 -129 4 -156 -25 -46 -48 -51 -81 -49 -293 0 -109 -2
-257 -7 -329 -5 -71 -10 -183 -11 -248 -2 -65 -6 -121 -9 -125 -4 -3 -14 -7
-24 -8 -289 -37 -281 -35 -482 -69 -125 -21 -269 -48 -420 -80 -8 -1 -35 -8
-60 -15 -25 -7 -56 -14 -70 -16 -25 -4 -167 -42 -270 -71 -30 -9 -59 -17 -65
-19 -139 -35 -581 -184 -725 -244 -146 -61 -139 -58 -213 -65 -160 -15 -217
-43 -237 -113 -15 -54 -3 -59 92 -33 124 34 116 35 112 -6 -2 -20 -11 -44 -21
-55 -17 -19 -16 -19 57 -13 113 10 149 20 288 80 71 30 135 55 143 55 8 0 19
4 25 9 8 8 107 40 424 140 270 86 675 183 940 225 19 3 46 8 60 10 36 7 93 15
180 27 41 6 86 12 100 14 43 7 134 17 250 30 25 3 65 7 90 10 25 3 74 7 110
10 36 3 85 8 110 10 482 42 1224 51 1620 20 153 -12 202 -18 258 -30 54 -11
61 -11 51 2 -17 19 -7 26 98 68 90 36 92 37 78 59 -32 48 -140 87 -280 101
-33 3 -73 8 -90 10 -16 2 -77 7 -135 10 -58 4 -130 8 -160 10 -30 2 -78 4
-107 4 l-51 1 4 67 c2 38 6 90 9 118 28 309 24 558 -12 663 -19 57 -26 67 -66
87 -41 20 -86 19 -149 -5 -29 -11 -64 -20 -77 -20 l-23 0 7 103 c7 114 11 147
25 227 5 30 12 73 15 95 3 22 8 49 10 61 15 68 20 179 40 799 2 66 4 241 5
389 l1 268 27 -6 c15 -3 61 -9 102 -12 64 -5 80 -2 107 15 49 31 67 74 66 161
-1 79 -8 166 -23 265 -10 64 -13 84 -30 210 -16 108 -20 305 -10 385 5 36 11
88 14 115 4 28 12 88 20 135 11 72 11 90 -1 120 -25 62 -65 78 -213 80 -52 1
-115 3 -140 5 -92 5 -276 17 -310 20 -19 1 -80 6 -135 10 -55 4 -118 9 -140
10 -79 7 -620 13 -640 8z"/>
</g>
</svg>
