<?xml version="1.0" encoding="iso-8859-1"?>
<!-- Generator: Adobe Illustrator 23.0.0, SVG Export Plug-In . SVG Version: 6.00 Build 0)  -->
<svg version="1.1" id="&#x56FE;&#x5C42;_1" xmlns="http://www.w3.org/2000/svg" xmlns:xlink="http://www.w3.org/1999/xlink" x="0px"
	 y="0px" viewBox="0 0 320 320" style="enable-background:new 0 0 320 320;" xml:space="preserve">
<g>
	<path style="fill:none;stroke:#000000;stroke-width:10;stroke-linejoin:round;" d="M38.339,156.271
		c2.038,1.359,28.627-3.659,33.272-3.865c22.463-0.998,43.649-0.267,64.864,7.394c4.753,1.716,21.989,6.624,23.19,11.427"/>
	<path style="fill:none;stroke:#000000;stroke-width:10;stroke-linejoin:round;" d="M59.16,282.398
		c-0.391-1.564,9.396-1.166,12.369-2.547c11.937-5.542,23.474-8.901,36.017-12.733c40.892-12.495,88.259-16.371,130.971-16.371
		c6.023,0,41.805,0.645,43.293,4.366"/>
	<path style="fill:#48A800;stroke:#000000;stroke-width:10;stroke-linejoin:round;" d="M78.662,150.359
		c0-3.631,1.947-25.781-0.336-28.063c-1.2-1.201-13.301,0.711-16.132-1.176c-2.743-1.829-3.665-29.001-1.344-32.096
		c1.094-1.459,2.839-1.828,4.537-2.017c7.045-0.782,2.838,11.06,5.377,15.292c0.862,1.436,6.209,4.228,7.058,1.68
		c1.1-3.301-0.258-7.781-0.673-11.091c-0.862-6.898-0.82-43.212,2.521-47.388c2.679-3.348,11.006-3.8,14.956-3.361
		c22.967,2.552,5.626,38.394,12.771,45.54c7.885,7.885,6.426-20.164,7.058-21.174c2.258-3.613,11.078-3.281,11.763,1.512
		c0.907,6.352,3.534,31.216,0,35.457c-3.125,3.75-9.094,5.128-13.611,5.881c-0.996,0.167-6.092-1.006-6.385,0.168
		c-2.033,8.134,0.504,19.647,0.504,28.063c0,3.952,0.311,8.053-0.336,11.931c-0.138,0.829,0,2.521,0,2.521"/>
	<path style="fill:#3CBF00;stroke:#000000;stroke-width:10;stroke-linejoin:round;" d="M179.398,207.09
		c-2.751-1.386-1.274,11.03-1.274,13.097c0,8.36-1.091,16.498-1.091,24.739c0,1.334,0,4.002,0,4.002s2.905-0.363,4.366-0.363
		c12.757,0,26.252,1.243,38.564,0.363c1.888-0.135,23.284,1.159,23.284,0.364c0-12.66,3.41-28.926,0.364-41.11
		c-0.537-2.147-4.353,0.817-6.549,1.091C234.759,209.561,181.349,208.073,179.398,207.09z"/>
	<path style="fill:#3CBF00;stroke:#000000;stroke-width:10;stroke-linejoin:round;" d="M190.858,206.363
		c0,3.033,0.705-6.503,0.728-6.912c0.296-5.336,0.008-10.682,0.363-16.007c1.12-16.797,0.615-33.711,1.819-50.569
		c0.294-4.122,0.363-8.225,0.363-12.37c0-2.792-0.363-11.159-0.363-8.368c0,1.325,1.384,1.092,2.547,1.092
		c6.446,0,33.786-5.189,37.108,1.455c0.99,1.981-0.632,59.817-1.456,64.758c-1.313,7.878-2.91,16.022-2.91,24.011
		c0,1.819,0,5.457,0,5.457"/>
	<path style="fill:none;stroke:#000000;stroke-width:10;stroke-linejoin:round;" d="M191.222,194.721c0-0.941,0,12.879,0,16.371"/>
	<path style="fill:#3CBF00;stroke:#000000;stroke-width:10;stroke-linejoin:round;" d="M180.853,50.835
		c-6.332,0.249,0.826,15.29,0.91,16.553c0.648,9.729,0,19.099,0,28.741c0,3.274,0.098,6.59-0.364,9.823
		c-0.031,0.213-0.902,4.002-0.728,4.002c19.666,0,38.844,0.728,58.573,0.728c2.792,0,8.368,2.428,8.368-0.364
		c0-12.572-4.143-25.171-3.275-38.2c0.28-4.203,0.862-8.578,1.456-12.733c0.062-0.432,1.015-5.821,0.727-5.821
		C224.788,53.564,203.455,49.946,180.853,50.835z"/>
	<path d="M198.442,94.444h6.101v11.63h-6.101V94.444z"/>
	<path d="M219.128,95.111h5.624v11.344h-5.624V95.111z"/>
	<path d="M198.442,88.056l26.467,0.121l-0.214,12.477l-26.253-0.015V88.056z"/>
	<path d="M207.308,82.337h8.77v7.149h-8.77V82.337z"/>
	<path d="M216.173,69.563h13.346v13.155h-13.346V69.563z"/>
	<path d="M193.866,69.277h13.346v13.155h-13.346V69.277z"/>
</g>
</svg>
