<svg xmlns="http://www.w3.org/2000/svg" viewBox="0 0 32 32" shape-rendering="crispEdges"><title>月光幽灵</title><rect x="0" y="0" width="32" height="32" fill="#29362f"/><rect x="1" y="1" width="30" height="30" fill="#7e799a"/><rect x="2" y="2" width="28" height="27" fill="#d5d1e3"/><rect x="3" y="3" width="26" height="25" fill="#e8e4cf"/><rect x="3" y="27" width="26" height="2" fill="#7e799a"/><rect x="4" y="4" width="3" height="3" fill="#d5d1e3"/><rect x="25" y="4" width="3" height="3" fill="#d5d1e3"/><rect x="4" y="24" width="3" height="3" fill="#d5d1e3"/><rect x="25" y="24" width="3" height="3" fill="#d5d1e3"/><rect x="10" y="7" width="12" height="19" fill="#29362f"/><rect x="7" y="11" width="18" height="13" fill="#29362f"/><rect x="9" y="11" width="14" height="12" fill="#d5d1e3"/><rect x="11" y="8" width="10" height="16" fill="#d5d1e3"/><rect x="10" y="13" width="3" height="4" fill="#29362f"/><rect x="19" y="13" width="3" height="4" fill="#29362f"/><rect x="14" y="18" width="4" height="3" fill="#7e799a"/><rect x="12" y="24" width="2" height="2" fill="#e8e4cf"/><rect x="18" y="24" width="2" height="2" fill="#e8e4cf"/></svg>
