<svg xmlns="http://www.w3.org/2000/svg" viewBox="0 0 32 32" shape-rendering="crispEdges"><title>苔原方脸</title><rect x="0" y="0" width="32" height="32" fill="#29362f"/><rect x="1" y="1" width="30" height="30" fill="#71854a"/><rect x="2" y="2" width="28" height="27" fill="#bad17e"/><rect x="3" y="3" width="26" height="25" fill="#e8e4cf"/><rect x="3" y="27" width="26" height="2" fill="#71854a"/><rect x="4" y="4" width="3" height="3" fill="#bad17e"/><rect x="25" y="4" width="3" height="3" fill="#bad17e"/><rect x="4" y="24" width="3" height="3" fill="#bad17e"/><rect x="25" y="24" width="3" height="3" fill="#bad17e"/><rect x="7" y="7" width="18" height="18" fill="#29362f"/><rect x="8" y="8" width="16" height="16" fill="#71854a"/><rect x="9" y="9" width="14" height="12" fill="#bad17e"/><rect x="9" y="9" width="4" height="2" fill="#f3e7bd"/><rect x="10" y="13" width="4" height="4" fill="#29362f"/><rect x="18" y="13" width="4" height="4" fill="#29362f"/><rect x="14" y="17" width="4" height="5" fill="#29362f"/><rect x="12" y="19" width="2" height="4" fill="#29362f"/><rect x="18" y="19" width="2" height="4" fill="#29362f"/></svg>
