<svg xmlns="http://www.w3.org/2000/svg" viewBox="0 0 32 32" shape-rendering="crispEdges"><title>铜制机器人</title><rect x="0" y="0" width="32" height="32" fill="#29362f"/><rect x="1" y="1" width="30" height="30" fill="#986849"/><rect x="2" y="2" width="28" height="27" fill="#dfaa70"/><rect x="3" y="3" width="26" height="25" fill="#e8e4cf"/><rect x="3" y="27" width="26" height="2" fill="#986849"/><rect x="4" y="4" width="3" height="3" fill="#dfaa70"/><rect x="25" y="4" width="3" height="3" fill="#dfaa70"/><rect x="4" y="24" width="3" height="3" fill="#dfaa70"/><rect x="25" y="24" width="3" height="3" fill="#dfaa70"/><rect x="15" y="5" width="2" height="5" fill="#29362f"/><rect x="14" y="4" width="4" height="3" fill="#dfaa70"/><rect x="5" y="14" width="3" height="8" fill="#986849"/><rect x="24" y="14" width="3" height="8" fill="#986849"/><rect x="8" y="9" width="16" height="16" fill="#29362f"/><rect x="9" y="10" width="14" height="14" fill="#986849"/><rect x="10" y="11" width="12" height="5" fill="#dfaa70"/><rect x="11" y="12" width="3" height="3" fill="#539d99"/><rect x="18" y="12" width="3" height="3" fill="#539d99"/><rect x="11" y="19" width="10" height="3" fill="#29362f"/><rect x="12" y="20" width="2" height="1" fill="#f3e7bd"/><rect x="15" y="20" width="2" height="1" fill="#f3e7bd"/><rect x="18" y="20" width="2" height="1" fill="#f3e7bd"/></svg>
