<svg xmlns="http://www.w3.org/2000/svg" viewBox="0 0 32 32" shape-rendering="crispEdges"><title>翡翠史莱姆</title><rect x="0" y="0" width="32" height="32" fill="#29362f"/><rect x="1" y="1" width="30" height="30" fill="#3e8673"/><rect x="2" y="2" width="28" height="27" fill="#89c5a1"/><rect x="3" y="3" width="26" height="25" fill="#e8e4cf"/><rect x="3" y="27" width="26" height="2" fill="#3e8673"/><rect x="4" y="4" width="3" height="3" fill="#89c5a1"/><rect x="25" y="4" width="3" height="3" fill="#89c5a1"/><rect x="4" y="24" width="3" height="3" fill="#89c5a1"/><rect x="25" y="24" width="3" height="3" fill="#89c5a1"/><rect x="6" y="13" width="20" height="11" fill="#29362f"/><rect x="9" y="9" width="14" height="16" fill="#29362f"/><rect x="7" y="14" width="18" height="8" fill="#3e8673"/><rect x="10" y="10" width="12" height="13" fill="#89c5a1"/><rect x="9" y="12" width="4" height="2" fill="#f3e7bd"/><rect x="11" y="16" width="3" height="3" fill="#29362f"/><rect x="19" y="16" width="3" height="3" fill="#29362f"/><rect x="15" y="20" width="3" height="2" fill="#3e8673"/></svg>
